# xmcd
#
# Track frame offsets:
#	150
#	21829
#	43184
#	66542
#	80977
#	98633
#	116151
#	130109
#	147642
#	159905
#	176590
#	194632
#	210316
#	249347
#
# Disc length: 3583 seconds
#
# Revision: 1
# Processed by: cddbd v1.5.2PL0 Copyright (c) Steve Scherf et al.
# Submitted via: audiograbber 1.83.01
#
DISCID=cf0dfd0e
DTITLE=Henning Pertiet and Michael Maass - live 2003 boogie and blues
DYEAR=2003
DGENRE=Boogie
TTITLE0=Off-Shoot-Zero
TTITLE1=Lingony
TTITLE2=Emanon Blues
TTITLE3=Confession The Blues
TTITLE4=Grab That Rhythm
TTITLE5=Grammar of the Blues
TTITLE6=Tep Dance Boogie
TTITLE7=Eddie's Blues
TTITLE8=Big Block
TTITLE9=Spring Joys
TTITLE10=Rody Poison
TTITLE11=Flower Pants
TTITLE12=Pinetop's Boogie
TTITLE13=Nu Orelans
EXTD=
EXTT0=
EXTT1=
EXTT2=
EXTT3=
EXTT4=
EXTT5=
EXTT6=
EXTT7=
EXTT8=
EXTT9=
EXTT10=
EXTT11=
EXTT12=
EXTT13=
PLAYORDER=
